<?xml version="1.0" standalone="no"?>
<!DOCTYPE svg PUBLIC "-//W3C//DTD SVG 20010904//EN"
 "http://www.w3.org/TR/2001/REC-SVG-20010904/DTD/svg10.dtd">
<svg version="1.0" xmlns="http://www.w3.org/2000/svg"
 width="256.000000pt" height="256.000000pt" viewBox="0 0 256.000000 256.000000"
 preserveAspectRatio="xMidYMid meet">
<metadata>
Created by potrace 1.11, written by Peter Selinger 2001-2013
</metadata>
<g transform="translate(0.000000,256.000000) scale(0.100000,-0.100000)"
fill="#000000" stroke="none">
<path d="M1308 2555 c-2 -2 -33 -5 -69 -9 -268 -25 -543 -197 -703 -440 -64
-98 -307 -589 -341 -689 -13 -40 -27 -88 -30 -107 -3 -19 -10 -54 -16 -77 -22
-101 -30 -284 -17 -398 8 -68 34 -185 48 -215 141 -312 315 -465 615 -540 72
-18 278 -22 350 -6 33 7 125 38 204 70 79 31 148 53 152 49 5 -5 9 -41 10 -81
1 -45 6 -72 13 -73 6 0 19 -2 28 -4 9 -2 43 -6 75 -9 32 -3 77 -8 100 -12 33
-4 91 8 280 61 131 36 244 68 251 70 6 3 12 10 13 17 0 7 2 22 4 33 2 11 7 54
11 95 3 41 8 77 9 80 2 3 6 43 10 90 4 47 9 93 10 102 2 9 6 45 10 80 7 70 12
123 20 183 3 22 7 60 9 85 5 47 9 84 29 265 20 178 23 169 -50 177 -35 4 -77
9 -95 12 -52 8 -172 20 -180 18 -5 -1 -8 2 -8 7 0 8 64 57 283 215 l98 71 -5
70 c-3 39 -10 85 -15 103 -5 18 -10 36 -11 40 -8 55 -59 165 -113 247 -45 67
-155 179 -221 224 -137 94 -339 165 -532 186 -59 7 -222 14 -226 10z m-110
-860 c121 -29 245 -115 285 -198 15 -29 15 -33 -1 -41 -9 -5 -44 -35 -77 -66
-33 -31 -96 -91 -140 -132 -44 -42 -97 -90 -117 -108 -38 -34 -42 -45 -53
-160 -9 -91 -16 -144 -21 -162 -3 -9 1 -20 8 -24 15 -9 11 -9 93 -18 33 -3 71
-8 85 -10 14 -3 73 -10 133 -17 123 -14 122 -13 79 -99 l-27 -55 -50 0 c-230
-2 -477 164 -556 374 -49 129 -58 338 -24 536 17 94 28 135 40 145 54 45 227
62 343 35z"/>
</g>
</svg>
